<svg width="86" height="86" viewBox="0 0 86 86" fill="none" xmlns="http://www.w3.org/2000/svg">
<g clip-path="url(#clip0_2_72)">
<path d="M68.4777 14.7121C65.1786 11.3779 61.2536 8.7277 56.928 6.9136C52.6024 5.09951 47.9613 4.15717 43.2707 4.14062H43C33.4895 4.14063 24.3685 7.91866 17.6436 14.6436C10.9187 21.3685 7.14063 30.4895 7.14062 40V59.6875C7.14063 61.7388 7.95549 63.7061 9.40597 65.1565C10.8564 66.607 12.8237 67.4219 14.875 67.4219H20.5C22.5513 67.4219 24.5186 66.607 25.969 65.1565C27.4195 63.7061 28.2344 61.7388 28.2344 59.6875V45.625C28.2344 43.5737 27.4195 41.6064 25.969 40.156C24.5186 38.7055 22.5513 37.8906 20.5 37.8906H11.4297C11.9648 29.882 15.5236 22.3761 21.3853 16.8929C27.247 11.4098 34.9735 8.35935 43 8.35938H43.2391C51.2319 8.39485 58.9132 11.4638 64.73 16.9458C70.5468 22.4278 74.0652 29.9139 74.5738 37.8906H65.5C63.4487 37.8906 61.4814 38.7055 60.031 40.156C58.5805 41.6064 57.7656 43.5737 57.7656 45.625V59.6875C57.7656 61.7388 58.5805 63.7061 60.031 65.1565C61.4814 66.607 63.4487 67.4219 65.5 67.4219H74.6406V68.125C74.6406 70.5492 73.6776 72.8742 71.9634 74.5884C70.2492 76.3026 67.9242 77.2656 65.5 77.2656H45.8125C45.2531 77.2656 44.7165 77.4879 44.3209 77.8834C43.9254 78.279 43.7031 78.8156 43.7031 79.375C43.7031 79.9344 43.9254 80.471 44.3209 80.8666C44.7165 81.2621 45.2531 81.4844 45.8125 81.4844H65.5C69.0431 81.4844 72.4411 80.0769 74.9465 77.5715C77.4519 75.0661 78.8594 71.6681 78.8594 68.125V40C78.877 35.3093 77.9691 30.6612 76.1877 26.3219C74.4062 21.9825 71.7862 18.0373 68.4777 14.7121ZM20.5 42.1094C21.4324 42.1094 22.3266 42.4798 22.9859 43.1391C23.6452 43.7984 24.0156 44.6926 24.0156 45.625V59.6875C24.0156 60.6199 23.6452 61.5141 22.9859 62.1734C22.3266 62.8327 21.4324 63.2031 20.5 63.2031H14.875C13.9426 63.2031 13.0484 62.8327 12.3891 62.1734C11.7298 61.5141 11.3594 60.6199 11.3594 59.6875V42.1094H20.5ZM61.9844 59.6875V45.625C61.9844 44.6926 62.3548 43.7984 63.0141 43.1391C63.6734 42.4798 64.5676 42.1094 65.5 42.1094H74.6406V63.2031H65.5C64.5676 63.2031 63.6734 62.8327 63.0141 62.1734C62.3548 61.5141 61.9844 60.6199 61.9844 59.6875Z" fill="#295D6C"/>
</g>
<defs>
<clipPath id="clip0_2_72">
<rect width="86" height="86" fill="white"/>
</clipPath>
</defs>
</svg>
