<svg width="87" height="87" viewBox="0 0 87 87" fill="none" xmlns="http://www.w3.org/2000/svg">
<path d="M43.5 48.9375C40.8114 48.9375 38.1832 48.1402 35.9477 46.6465C33.7122 45.1528 31.9699 43.0298 30.941 40.5459C29.9121 38.0619 29.6429 35.3287 30.1675 32.6917C30.692 30.0548 31.9867 27.6326 33.8878 25.7315C35.7889 23.8304 38.2111 22.5357 40.848 22.0112C43.4849 21.4867 46.2182 21.7559 48.7021 22.7848C51.186 23.8136 53.3091 25.556 54.8028 27.7915C56.2965 30.027 57.0938 32.6552 57.0938 35.3438C57.0894 38.9477 55.6559 42.4028 53.1075 44.9512C50.5591 47.4996 47.104 48.9332 43.5 48.9375ZM43.5 27.1875C41.8869 27.1875 40.3099 27.6659 38.9686 28.5621C37.6273 29.4583 36.5819 30.7321 35.9646 32.2225C35.3473 33.7129 35.1858 35.3528 35.5005 36.935C35.8152 38.5171 36.592 39.9704 37.7327 41.1111C38.8733 42.2518 40.3266 43.0286 41.9088 43.3433C43.491 43.658 45.1309 43.4965 46.6213 42.8792C48.1116 42.2618 49.3855 41.2164 50.2817 39.8751C51.1779 38.5338 51.6563 36.9569 51.6563 35.3438C51.6541 33.1812 50.7941 31.1079 49.265 29.5788C47.7358 28.0497 45.6625 27.1897 43.5 27.1875Z" fill="#295D6C"/>
<path d="M43.5 81.5625L20.5646 54.5137C20.2459 54.1075 19.9306 53.6988 19.6185 53.2875C15.7027 48.1257 13.5865 41.8228 13.5938 35.3438C13.5938 27.4121 16.7446 19.8053 22.3531 14.1968C27.9616 8.58833 35.5684 5.4375 43.5 5.4375C51.4316 5.4375 59.0384 8.58833 64.6469 14.1968C70.2554 19.8053 73.4063 27.4121 73.4063 35.3438C73.4126 41.8197 71.2974 48.1194 67.3842 53.2793L67.3815 53.2875C67.3815 53.2875 66.5659 54.3587 66.4436 54.5028L43.5 81.5625ZM23.9604 50.0114C23.9604 50.0114 24.5938 50.8488 24.7379 51.0282L43.5 73.1561L62.2866 50.9983C62.4062 50.8488 63.0424 50.006 63.0451 50.0033C66.2457 45.7869 67.9753 40.6373 67.9688 35.3438C67.9688 28.8542 65.3908 22.6305 60.802 18.0417C56.2133 13.4529 49.9895 10.875 43.5 10.875C37.0105 10.875 30.7868 13.4529 26.198 18.0417C21.6092 22.6305 19.0313 28.8542 19.0313 35.3438C19.0246 40.6407 20.7562 45.7935 23.9604 50.0114Z" fill="#295D6C"/>
</svg>
