<svg width="85" height="66" viewBox="0 0 85 66" fill="none" xmlns="http://www.w3.org/2000/svg">
<path d="M7.63111 66C5.45574 66 3.64083 65.274 2.18639 63.822C0.731945 62.37 0.00314815 60.5566 0 58.3817V7.61829C0 5.44657 0.728797 3.63471 2.18639 2.18271C3.64398 0.730713 5.45731 0.00314286 7.62639 0H77.3736C79.5458 0 81.3592 0.72757 82.8136 2.18271C84.2681 3.63786 84.9969 5.44971 85 7.61829V58.3864C85 60.555 84.2712 62.3668 82.8136 63.822C81.356 65.2771 79.5427 66.0031 77.3736 66H7.63111ZM42.5 33.5469L4.72222 8.88643V58.3864C4.72222 59.2318 4.99454 59.9264 5.53917 60.4701C6.0838 61.0138 6.78111 61.2857 7.63111 61.2857H77.3736C78.2205 61.2857 78.9162 61.0138 79.4608 60.4701C80.0055 59.9264 80.2778 59.2303 80.2778 58.3817V8.88171L42.5 33.5469ZM42.5 28.2857L78.8233 4.71428H6.17667L42.5 28.2857ZM4.72222 8.88643V4.71428V58.3864C4.72222 59.2318 4.99454 59.9264 5.53917 60.4701C6.0838 61.0138 6.78111 61.2857 7.63111 61.2857H4.72222V8.88643Z" fill="#295D6C"/>
</svg>
